{"title":"Cars.2.2011.BRRip.720p.x264.Feel-Free","uid":6743929,"size":2748917448,"categoryP":"video","categoryS":"hd___movies","magnet":"?xt=urn:btih:a945275509aad78960f8f128adb6a9b58ae6a7ad&amp;dn=Cars.2.2011.BRRip.720p.x264.Feel-Free&amp;tr=udp%3A%2F%2Ftracker.openbittorrent.com%3A80&amp;tr=udp%3A%2F%2Fopen.demonii.com%3A1337&amp;tr=udp%3A%2F%2Ftracker.coppersurfer.tk%3A6969&amp;tr=udp%3A%2F%2Fexodus.desync.com%3A6969","seeders":0,"leechers":0,"uploader":"hiest","files":-1,"time":1318611113,"description":"Full Credits To Feel Free :)\n\n ######## ######## ######## ##          ######## ########  ######## ######## \n ##       ##       ##       ##          ##       ##     ## ##       ##       \n ##       ##       ##       ##          ##       ##     ## ##       ##       \n ######   ######   ######   ##          ######   ########  ######   ######   \n ##       ##       ##       ##          ##       ##   ##   ##       ##       \n ##       ##       ##       ##          ##       ##    ##  ##       ##       \n ##       ######## ######## ########    ##       ##     ## ######## ########\n\nGenre:Animation | Adventure | Comedy \n Language:English\n IMDb: &lt;a href=&quot;\nhttp://www.imdb.com/title/tt1216475/&quot; rel=&quot;nofollow&quot; target=&quot;_NEW&quot;&gt;\nhttp://www.imdb.com/title/tt1216475/&lt;/a&gt;\n Source:1080p.Bluray.x264-METiS Thanks!\n\n Format : MPEG-4\n Format profile : Base Media\n Codec ID : isom\n File size : 2.56 GiB\n Duration : 1h 47mn\n Overall bit rate : 3 418 Kbps\n\n Video\n ID : 1\n Format : AVC\n Format/Info : Advanced Video Codec\n Format profile : &lt;a class=&quot;__cf_email__&quot; href=&quot;/cdn-cgi/l/email-protection&quot; data-cfemail=&quot;c28aaba5aa828ef6ecf3&quot;&gt;[email&amp;#160;protected]&lt;/a&gt;&lt;script cf-hash='f9e31' type=&quot;text/javascript&quot;&gt;\n/* &lt;![CDATA[ */!function(){try{var t=&quot;currentScript&quot;in document?document.currentScript:function(){for(var t=document.getElementsByTagName(&quot;script&quot;),e=t.length;e--;)if(t[e].getAttribute(&quot;cf-hash&quot;))return t[e]}();if(t&amp;&amp;t.previousSibling){var e,r,n,i,c=t.previousSibling,a=c.getAttribute(&quot;data-cfemail&quot;);if(a){for(e=&quot;&quot;,r=parseInt(a.substr(0,2),16),n=2;a.length-n;n+=2)i=parseInt(a.substr(n,2),16)^r,e+=String.fromCharCode(i);e=document.createTextNode(e),c.parentNode.replaceChild(e,c)}}}catch(u){}}();/* ]]&gt; */&lt;/script&gt;\n Format settings, CABAC : Yes\n Format settings, ReFrames : 3 frames\n Codec ID : avc1\n Codec ID/Info : Advanced Video Coding\n Duration : 1h 47mn\n Bit rate mode : Variable\n Bit rate : 3 000 Kbps\n Maximum bit rate : 17.9 Mbps\n Width : 1 280 pixels\n Height : 536 pixels\n Display aspect ratio : 2.35:1\n Frame rate mode : Constant\n Frame rate : 23.976 fps\n Color space : YUV\n Chroma subsampling : 4:2:0\n Bit depth : 8 bits\n Scan type : Progressive\n Bits/(Pixel*Frame) : 0.182\n Stream size : 2.22 GiB (87%)\n Writing library : x264\n\n Audio\n ID : 2\n Format : AAC\n Format/Info : Advanced Audio Codec\n Format version : Version 4\n Format profile : LC\n Format settings, SBR : No\n Codec ID : 40\n Duration : 1h 47mn\n Bit rate mode : Variable\n Bit rate : 446 Kbps\n Maximum bit rate : 522 Kbps\n Channel(s) : 6 channels\n Channel positions : Front: L C R, Side: L R, LFE\n Sampling rate : 48.0 KHz\n Stream size : 341 MiB (13%)\n\n\n Plot:\n Star race car Lightning McQueen and his pal Mater head overseas to compete in the World Grand Prix race. But the road to the championship becomes rocky as Mater gets caught up in an intriguing adventure of his own: international espionage\n\n\nGreets:\n\n INK,CRYS,IMAGINE,LKRG,FXG,3Li,FLAWL3SS,TA,iLLUSiON,ViSiON,DTRG \n SAFCuk009,LU,TheFalcon007,MYSTiC,PrisM,Noir,WBZ,LAP,Rx,Kingdom,SAFCuk009+Fabreezy,\n HDLiTE,TWiZTED,ExtraTorrentRG.ELEKTRI4KA,MAGNAT,CM8\n And to all the other p2p grps past and present\n\n\n\n\n\n\n==================================                                                    &lt;a href=&quot;\nhttp://thepiratebay.se/user/hiest&quot; rel=&quot;nofollow&quot; target=&quot;_NEW&quot;&gt;\nhttp://thepiratebay.se/user/hiest&lt;/a&gt;\n==================================\n\n\n\n\n\n\nScreenshots:\n &lt;a href=&quot;\nhttp://www.pix2links.com/image/3s7W.png&quot; rel=&quot;nofollow&quot; target=&quot;_NEW&quot;&gt;\nhttp://www.pix2links.com/image/3s7W.png&lt;/a&gt;\n &lt;a href=&quot;\nhttp://www.pix2links.com/image/KzeRi.png&quot; rel=&quot;nofollow&quot; target=&quot;_NEW&quot;&gt;\nhttp://www.pix2links.com/image/KzeRi.png&lt;/a&gt;\n &lt;a href=&quot;\nhttp://www.pix2links.com/image/Sb8sN.png&quot; rel=&quot;nofollow&quot; target=&quot;_NEW&quot;&gt;\nhttp://www.pix2links.com/image/Sb8sN.png&lt;/a&gt;\n &lt;a href=&quot;\nhttp://www.pix2links.com/image/mMcdl.png&quot; rel=&quot;nofollow&quot; target=&quot;_NEW&quot;&gt;\nhttp://www.pix2links.com/image/mMcdl.png&lt;/a&gt;\n &lt;a href=&quot;\nhttp://www.pix2links.com/image/9BStd.png&quot; rel=&quot;nofollow&quot; target=&quot;_NEW&quot;&gt;\nhttp://www.pix2links.com/image/9BStd.png&lt;/a&gt;\n\n\nFull Credits To Feel Free :)\n\n ######## ######## ######## ##          ######## ########  ######## ######## \n ##       ##       ##       ##          ##       ##     ## ##       ##       \n ##       ##       ##       ##          ##       ##     ## ##       ##       \n ######   ######   ######   ##          ######   ########  ######   ######   \n ##       ##       ##       ##          ##       ##   ##   ##       ##       \n ##       ##       ##       ##          ##       ##    ##  ##       ##       \n ##       ######## ######## ########    ##       ##     ## ######## ########","torrent":{"xt":"urn:btih:a945275509aad78960f8f128adb6a9b58ae6a7ad","amp;dn":"Cars.2.2011.BRRip.720p.x264.Feel-Free","amp;tr":["udp%3A%2F%2Ftracker.openbittorrent.com%3A80","udp%3A%2F%2Fopen.demonii.com%3A1337","udp%3A%2F%2Ftracker.coppersurfer.tk%3A6969","udp%3A%2F%2Fexodus.desync.com%3A6969"],"infoHash":"a945275509aad78960f8f128adb6a9b58ae6a7ad","infoHashBuffer":{"type":"Buffer","data":[169,69,39,85,9,170,215,137,96,248,241,40,173,182,169,181,138,230,167,173]},"announce":[],"urlList":[]}}